<?xml version="1.0" encoding="UTF-8"?>
<svg id="Layer_2" data-name="Layer 2" xmlns="http://www.w3.org/2000/svg" xmlns:xlink="http://www.w3.org/1999/xlink" viewBox="0 0 45.8 45.81">
  <defs>
    <style>
      .cls-1 {
        fill: url(#linear-gradient-2);
      }

      .cls-2 {
        fill: url(#linear-gradient-4);
      }

      .cls-3 {
        fill: url(#linear-gradient-3);
      }

      .cls-4 {
        fill: url(#linear-gradient-5);
      }

      .cls-5 {
        fill: url(#linear-gradient-8);
      }

      .cls-6 {
        fill: url(#linear-gradient-7);
      }

      .cls-7 {
        fill: url(#linear-gradient-9);
      }

      .cls-8 {
        fill: url(#linear-gradient-6);
      }

      .cls-9 {
        fill: url(#linear-gradient);
      }
    </style>
    <linearGradient id="linear-gradient" x1="89.72" y1="73.03" x2="11.24" y2="19.55" gradientUnits="userSpaceOnUse">
      <stop offset="0" stop-color="#0099fd"/>
      <stop offset="1" stop-color="#49a97e"/>
    </linearGradient>
    <linearGradient id="linear-gradient-2" x1="93.99" y1="66.76" x2="15.51" y2="13.28" xlink:href="#linear-gradient"/>
    <linearGradient id="linear-gradient-3" x1="102.95" y1="53.62" x2="24.47" y2=".14" xlink:href="#linear-gradient"/>
    <linearGradient id="linear-gradient-4" x1="80.76" y1="86.18" x2="2.28" y2="32.69" xlink:href="#linear-gradient"/>
    <linearGradient id="linear-gradient-5" x1="87.34" y1="76.52" x2="8.86" y2="23.04" xlink:href="#linear-gradient"/>
    <linearGradient id="linear-gradient-6" x1="98.93" y1="59.53" x2="20.44" y2="6.04" xlink:href="#linear-gradient"/>
    <linearGradient id="linear-gradient-7" x1="84.79" y1="80.26" x2="6.31" y2="26.78" xlink:href="#linear-gradient"/>
    <linearGradient id="linear-gradient-8" x1="96.38" y1="63.26" x2="17.9" y2="9.78" xlink:href="#linear-gradient"/>
    <linearGradient id="linear-gradient-9" x1="91.38" y1="70.59" x2="12.9" y2="17.11" xlink:href="#linear-gradient"/>
  </defs>
  <g id="Layer_1-2" data-name="Layer 1">
    <g>
      <path class="cls-9" d="M45.8,28.79c-1.91,7.94-8.59,14.95-17.01,17.02-.22-.87-.45-1.74-.68-2.63.58-.19,1.14-.35,1.68-.55,6.68-2.51,11.09-7.17,13.19-14,.13-.41.26-.53.69-.39.7.22,1.42.38,2.12.56Z"/>
      <path class="cls-1" d="M17.01,0c.23.89.45,1.75.68,2.66-3.68.99-6.87,2.8-9.55,5.48-2.68,2.68-4.5,5.86-5.49,9.56-.91-.23-1.78-.46-2.65-.68C1.86,9.18,8.48,2.12,17.01,0Z"/>
      <path class="cls-3" d="M28.12,2.62c.22-.87.45-1.73.67-2.59,7.65,1.72,14.98,8.46,17.02,17-.87.22-1.74.45-2.61.67-2.34-7.72-7.33-12.73-15.07-15.07Z"/>
      <path class="cls-2" d="M17.68,43.19c-.23.88-.45,1.74-.67,2.59C9.29,44.02,2,37.26,0,28.8c.86-.22,1.72-.44,2.6-.67,2.32,7.71,7.33,12.72,15.08,15.07Z"/>
      <g>
        <path class="cls-4" d="M2.84,22.91c.21-.08.3-.12.4-.15,2.38-.79,4.75-1.58,7.13-2.38.28-.09.43-.09.58.21.34.69.74,1.34,1.09,2.03.08.16.08.42,0,.57-.35.7-.75,1.37-1.11,2.07-.12.23-.24.26-.47.18-2.49-.84-4.98-1.67-7.6-2.54Z"/>
        <path class="cls-8" d="M22.95,2.96c.86,2.59,1.72,5.18,2.59,7.79-.85.47-1.67.93-2.49,1.37-.09.05-.25.03-.34-.02-.75-.4-1.49-.8-2.22-1.22-.09-.05-.17-.25-.14-.35.83-2.52,1.67-5.04,2.51-7.56.03,0,.06,0,.09,0Z"/>
        <path class="cls-6" d="M22.89,42.89c-.06-.15-.1-.26-.14-.37-.79-2.36-1.57-4.73-2.37-7.08-.11-.32-.06-.46.24-.61.67-.34,1.32-.73,1.99-1.06.16-.08.42-.08.57,0,.7.35,1.37.75,2.07,1.11.23.12.28.23.2.47-.83,2.46-1.65,4.92-2.47,7.39-.01.04-.04.07-.09.15Z"/>
        <path class="cls-5" d="M35.06,20.26c2.61.87,5.2,1.73,7.88,2.63-.2.08-.32.13-.44.17-2.35.78-4.7,1.56-7.04,2.36-.34.12-.48.04-.63-.26-.34-.67-.72-1.32-1.07-1.99-.06-.12-.12-.32-.06-.42.43-.83.89-1.64,1.36-2.49Z"/>
      </g>
      <path class="cls-7" d="M32.66,33.72c-.55-.34-1.1-.67-1.65-1.01-2.52-1.57-5.05-3.14-7.56-4.72-.33-.21-.6-.24-.94-.02-2.03,1.28-4.08,2.54-6.12,3.81-1.01.62-2.01,1.24-3.02,1.87-.03.02-.07.04-.15.02.26-.42.52-.85.79-1.27,1.27-2,2.54-3.99,3.81-5.99.44-.7.86-1.42,1.29-2.13.13-.22.12-.43-.02-.64-1.31-2.08-2.62-4.15-3.93-6.23-.64-1.02-1.27-2.04-1.9-3.06-.02-.03-.03-.06-.07-.16.47.3.88.56,1.29.81,2.16,1.32,4.32,2.63,6.47,3.96.55.34,1.1.7,1.64,1.06.26.18.49.16.75,0,2.95-1.84,5.91-3.67,8.86-5.51.16-.1.32-.19.52-.24-.23.36-.45.73-.68,1.09-1.69,2.73-3.38,5.47-5.08,8.2-.19.31-.19.57,0,.88,1.28,2.04,2.56,4.09,3.83,6.14.62,1,1.23,2,1.85,2.99.03.04.05.09.07.13-.01.01-.02.02-.04.04Z"/>
    </g>
  </g>
</svg>