<svg width="65" height="64" viewBox="0 0 65 64" fill="none" xmlns="http://www.w3.org/2000/svg">
<rect width="65" height="64" rx="32" fill="#F7F1E7"/>
<path fill-rule="evenodd" clip-rule="evenodd" d="M32.5 44.5C25.5975 44.5 20 38.9025 20 32C20 25.0975 25.5975 19.5 32.5 19.5C39.4025 19.5 45 25.0975 45 32C45 38.9025 39.4025 44.5 32.5 44.5ZM32.5 23.8695C35.9195 23.8695 38.6914 26.6414 38.6914 30.0609C38.6914 33.4803 32.5 40.1304 32.5 40.1304C32.5 40.1304 26.3086 33.4803 26.3086 30.0609C26.3086 26.6414 29.0805 23.8695 32.5 23.8695ZM32.5 27.601C33.7965 27.601 34.8478 28.6524 34.8478 29.9489C34.8478 31.2454 33.7965 32.2968 32.5 32.2968C31.2035 32.2968 30.1522 31.2454 30.1522 29.9489C30.1522 28.6524 31.2035 27.601 32.5 27.601Z" fill="#D78E00"/>
</svg>
