<svg width="25" height="26" viewBox="0 0 25 26" fill="none" xmlns="http://www.w3.org/2000/svg">
<path fill-rule="evenodd" clip-rule="evenodd" d="M12.5 25.5C5.59754 25.5 0 19.9025 0 13C0 6.09754 5.59754 0.5 12.5 0.5C19.4025 0.5 25 6.09754 25 13C25 19.9025 19.4025 25.5 12.5 25.5ZM12.5 4.86949C15.9195 4.86949 18.6914 7.64144 18.6914 11.0609C18.6914 14.4803 12.5 21.1304 12.5 21.1304C12.5 21.1304 6.30856 14.4803 6.30856 11.0609C6.30856 7.64144 9.08051 4.86949 12.5 4.86949ZM12.5 8.60098C13.7965 8.60098 14.8478 9.65236 14.8478 10.9489C14.8478 12.2454 13.7965 13.2968 12.5 13.2968C11.2035 13.2968 10.1522 12.2454 10.1522 10.9489C10.1522 9.65236 11.2035 8.60098 12.5 8.60098Z" fill="#248A00"/>
</svg>
