<svg width="24" height="22" viewBox="0 0 24 22" fill="none" xmlns="http://www.w3.org/2000/svg">
<path d="M12 8.68585C14.2523 8.68585 16.0781 6.86001 16.0781 4.60773C16.0781 2.35544 14.2523 0.529602 12 0.529602C9.74771 0.529602 7.92188 2.35544 7.92188 4.60773C7.92188 6.86001 9.74771 8.68585 12 8.68585Z" fill="#005CE8"/>
<path d="M20.25 8.68579C21.6739 8.68579 22.8281 7.53153 22.8281 6.10767C22.8281 4.68381 21.6739 3.52954 20.25 3.52954C18.8261 3.52954 17.6719 4.68381 17.6719 6.10767C17.6719 7.53153 18.8261 8.68579 20.25 8.68579Z" fill="#005CE8"/>
<path d="M3.75 8.68579C5.17386 8.68579 6.32812 7.53153 6.32812 6.10767C6.32812 4.68381 5.17386 3.52954 3.75 3.52954C2.32614 3.52954 1.17188 4.68381 1.17188 6.10767C1.17188 7.53153 2.32614 8.68579 3.75 8.68579Z" fill="#005CE8"/>
<path d="M6.29016 11.001C5.27531 10.1695 4.35623 10.2796 3.18281 10.2796C1.42781 10.2796 0 11.699 0 13.4432V18.5624C0 19.3199 0.618281 19.9359 1.37859 19.9359C4.66106 19.9359 4.26562 19.9952 4.26562 19.7943C4.26562 16.1668 3.83597 13.5066 6.29016 11.001Z" fill="#005CE8"/>
<path d="M13.1161 10.2983C11.0665 10.1273 9.28506 10.3003 7.74845 11.5686C5.17703 13.6283 5.67189 16.4016 5.67189 19.7942C5.67189 20.6918 6.4022 21.4358 7.31345 21.4358C17.2079 21.4358 17.6017 21.755 18.1885 20.4556C18.3809 20.0162 18.3281 20.1559 18.3281 15.9524C18.3281 12.6136 15.4372 10.2983 13.1161 10.2983Z" fill="#005CE8"/>
<path d="M20.8172 10.2795C19.6373 10.2795 18.7233 10.1706 17.7098 11.001C20.1457 13.488 19.7344 15.9667 19.7344 19.7942C19.7344 19.9965 19.4061 19.9358 22.5722 19.9358C23.3597 19.9358 24 19.2978 24 18.5136V13.4431C24 11.6989 22.5722 10.2795 20.8172 10.2795Z" fill="#005CE8"/>
</svg>
