<svg width="24" height="28" viewBox="0 0 24 28" fill="none" xmlns="http://www.w3.org/2000/svg">
<path d="M12.48 21.2C12.48 20.8736 12.5117 20.5549 12.5568 20.24H10.56C10.0301 20.24 9.6 19.8109 9.6 19.28C9.6 18.7491 10.0301 18.32 10.56 18.32H13.1376C14.2186 16.0535 16.5264 14.48 19.2 14.48C19.8672 14.48 20.5114 14.5808 21.12 14.7632V4.88002C21.12 2.2333 18.9667 0.0800171 16.32 0.0800171H4.8C2.15328 0.0800171 0 2.2333 0 4.88002V20.24C0 22.8867 2.15328 25.04 4.8 25.04H13.4093C12.8486 23.9322 12.48 22.6506 12.48 21.2ZM10.56 4.88002H17.28C17.8099 4.88002 18.24 5.3101 18.24 5.84002C18.24 6.36994 17.8099 6.80002 17.28 6.80002H10.56C10.0301 6.80002 9.6 6.36994 9.6 5.84002C9.6 5.3101 10.0301 4.88002 10.56 4.88002ZM10.56 11.6H17.28C17.8099 11.6 18.24 12.0301 18.24 12.56C18.24 13.0899 17.8099 13.52 17.28 13.52H10.56C10.0301 13.52 9.6 13.0899 9.6 12.56C9.6 12.0301 10.0301 11.6 10.56 11.6ZM8.36352 18.5139L5.76192 21.1539C5.58144 21.3363 5.33472 21.44 5.0784 21.44H5.0592C4.7952 21.4343 4.5456 21.321 4.368 21.1261L3.1296 19.7648C2.77248 19.3731 2.80128 18.7655 3.19392 18.4083C3.58656 18.0522 4.19424 18.081 4.5504 18.4727L5.10624 19.0842L6.99648 17.1661C7.36896 16.7888 7.97664 16.784 8.35488 17.1565C8.73216 17.529 8.73696 18.1367 8.36448 18.5139H8.36352ZM8.36352 11.7939L5.76192 14.4339C5.58144 14.6163 5.33472 14.72 5.0784 14.72H5.0592C4.79616 14.7143 4.5456 14.601 4.368 14.4061L3.1296 13.0458C2.77248 12.6541 2.80128 12.0464 3.19392 11.6893C3.58656 11.3312 4.19424 11.3619 4.5504 11.7536L5.10624 12.3642L6.99648 10.4461C7.36896 10.0688 7.97664 10.065 8.35488 10.4365C8.73216 10.809 8.73696 11.4167 8.36448 11.7949L8.36352 11.7939ZM8.36352 5.07394L5.76192 7.71394C5.58144 7.8973 5.33472 8.00002 5.0784 8.00002H5.0592C4.79616 7.99426 4.5456 7.88098 4.368 7.6861L3.1296 6.32578C2.77248 5.9341 2.80128 5.32642 3.19392 4.9693C3.58656 4.61218 4.19424 4.64194 4.5504 5.03362L5.10624 5.64418L6.99648 3.7261C7.36896 3.34978 7.97664 3.34402 8.35488 3.7165C8.73216 4.08898 8.73696 4.69666 8.36448 5.0749L8.36352 5.07394Z" fill="#8E8426"/>
<path d="M19.2 16.4C16.5533 16.4 14.4 18.5533 14.4 21.2C14.4 25.5824 18.5923 27.7299 18.7709 27.8192C18.9063 27.8864 19.0531 27.92 19.2 27.92C19.3469 27.92 19.4947 27.8864 19.6291 27.8192C19.8077 27.7299 24 25.5834 24 21.2C24 18.5533 21.8467 16.4 19.2 16.4ZM19.2 23.12C18.1392 23.12 17.28 22.2608 17.28 21.2C17.28 20.1392 18.1392 19.28 19.2 19.28C20.2608 19.28 21.12 20.1392 21.12 21.2C21.12 22.2608 20.2608 23.12 19.2 23.12Z" fill="#8E8426"/>
</svg>
